<svg width="200" height="200" viewBox="0 0 200 200" fill="none" xmlns="http://www.w3.org/2000/svg">
<path d="M115.799 78.6719C115.799 70.0391 110.382 65.2734 100.868 65.2734H83.368V93.0859H98.125C109.514 93.0469 115.799 87.8906 115.799 78.6719ZM179.514 73.6719C176.215 61.6016 175.729 46.7969 176.111 35.3516C176.493 23.4375 168.229 12.5 157.118 12.5H42.9514C31.8055 12.5 23.5764 23.4766 23.9583 35.3516C24.3055 46.7969 23.8542 61.6016 20.5555 73.6719C17.2222 85.7813 11.6319 93.4375 2.43054 94.4141V105.547C11.5972 106.523 17.2222 114.18 20.5555 126.289C23.8542 138.359 24.3403 153.164 23.9583 164.609C23.5764 176.523 31.8403 187.461 42.9514 187.461H157.083C168.229 187.461 176.458 176.484 176.076 164.609C175.729 153.164 176.181 138.359 179.479 126.289C182.812 114.18 188.403 106.523 197.569 105.547V94.4141C188.437 93.4375 182.812 85.7813 179.514 73.6719ZM104.236 146.523H70.243V53.4375H104.062C119.097 53.4375 128.958 62.5781 128.958 76.6406C128.958 86.5234 122.326 95.3516 113.854 96.875V97.3828C125.382 98.7891 133.125 107.773 133.125 120.156C133.125 136.602 122.257 146.523 104.236 146.523ZM100.764 104.062H83.368V134.687H101.528C113.403 134.687 119.687 129.336 119.687 119.258C119.687 109.219 113.229 104.062 100.764 104.062Z" fill="#5900CA"/>
</svg>
