<svg width="200" height="200" viewBox="0 0 200 200" fill="none" xmlns="http://www.w3.org/2000/svg">
<path d="M7.29163 37.4189C7.29163 16.753 29.629 0 57.1838 0H142.792C170.347 0 192.684 16.753 192.684 37.4189C192.684 50.5047 183.728 62.0219 170.162 68.7098C183.728 75.398 192.684 86.9148 192.684 100.001C192.684 120.667 170.347 137.42 142.792 137.42H141.709C128.791 137.42 117.02 133.738 108.159 127.697V162.175C108.159 183.116 85.238 200 57.4526 200C29.9667 200 7.29163 183.298 7.29163 162.581C7.29163 149.496 16.2471 137.979 29.812 131.291C16.2471 124.603 7.29163 113.086 7.29163 100.001C7.29163 86.9148 16.2479 75.398 29.8138 68.7098C16.2479 62.0219 7.29163 50.5047 7.29163 37.4189ZM91.8166 74.8387H57.1838C38.6547 74.8387 23.6342 86.1043 23.6342 100.001C23.6342 113.844 38.5389 125.076 56.9692 125.162C57.0406 125.162 57.1119 125.162 57.1838 125.162H91.8166V74.8387ZM108.159 100.001C108.159 113.897 123.18 125.163 141.709 125.163H142.792C161.321 125.163 176.342 113.897 176.342 100.001C176.342 86.1043 161.321 74.8387 142.792 74.8387H141.709C123.18 74.8387 108.159 86.1043 108.159 100.001ZM57.1838 137.42C57.1119 137.42 57.0406 137.42 56.9692 137.42C38.5389 137.506 23.6342 148.738 23.6342 162.581C23.6342 176.427 38.8554 187.743 57.4526 187.743C76.3494 187.743 91.8166 176.245 91.8166 162.175V137.42H57.1838ZM57.1838 12.257C38.6547 12.257 23.6342 23.5224 23.6342 37.4189C23.6342 51.3156 38.6547 62.5809 57.1838 62.5809H91.8166V12.257H57.1838ZM108.159 62.5809H142.792C161.321 62.5809 176.342 51.3156 176.342 37.4189C176.342 23.5224 161.321 12.257 142.792 12.257H108.159V62.5809Z" fill="#100F0F"/>
</svg>
