<svg width="200" height="200" viewBox="0 0 200 200" fill="none" xmlns="http://www.w3.org/2000/svg">
<path d="M66.8952 155.234C66.8952 156.016 65.9677 156.641 64.7984 156.641C63.4677 156.758 62.5403 156.133 62.5403 155.234C62.5403 154.453 63.4677 153.828 64.6371 153.828C65.8468 153.711 66.8952 154.336 66.8952 155.234ZM54.3548 153.477C54.0726 154.258 54.879 155.156 56.0887 155.391C57.1371 155.781 58.3468 155.391 58.5887 154.609C58.8306 153.828 58.0645 152.93 56.8548 152.578C55.8065 152.305 54.6371 152.695 54.3548 153.477ZM72.1774 152.813C71.0081 153.086 70.2016 153.828 70.3226 154.727C70.4435 155.508 71.4919 156.016 72.7016 155.742C73.871 155.469 74.6774 154.727 74.5564 153.945C74.4355 153.203 73.3468 152.695 72.1774 152.813ZM98.7097 3.125C42.7823 3.125 0 44.2578 0 98.4375C0 141.758 28.1452 178.828 68.3468 191.875C73.5081 192.773 75.3226 189.688 75.3226 187.148C75.3226 184.727 75.2016 171.367 75.2016 163.164C75.2016 163.164 46.9758 169.023 41.0484 151.523C41.0484 151.523 36.4516 140.156 29.8387 137.227C29.8387 137.227 20.6048 131.094 30.4839 131.211C30.4839 131.211 40.5242 131.992 46.0484 141.289C54.879 156.367 69.6774 152.031 75.4436 149.453C76.371 143.203 78.9919 138.867 81.8952 136.289C59.3548 133.867 36.6129 130.703 36.6129 93.125C36.6129 82.3828 39.6774 76.9922 46.129 70.1172C45.0806 67.5781 41.6532 57.1094 47.1774 43.5937C55.6048 41.0547 75 54.1406 75 54.1406C83.0645 51.9531 91.7339 50.8203 100.323 50.8203C108.911 50.8203 117.581 51.9531 125.645 54.1406C125.645 54.1406 145.04 41.0156 153.468 43.5937C158.992 57.1484 155.565 67.5781 154.516 70.1172C160.968 77.0313 164.919 82.4219 164.919 93.125C164.919 130.82 141.169 133.828 118.629 136.289C122.339 139.375 125.484 145.234 125.484 154.414C125.484 167.578 125.363 183.867 125.363 187.07C125.363 189.609 127.218 192.695 132.339 191.797C172.661 178.828 200 141.758 200 98.4375C200 44.2578 154.637 3.125 98.7097 3.125ZM39.1935 137.852C38.6694 138.242 38.7903 139.141 39.4758 139.883C40.121 140.508 41.0484 140.781 41.5726 140.273C42.0968 139.883 41.9758 138.984 41.2903 138.242C40.6452 137.617 39.7177 137.344 39.1935 137.852ZM34.8387 134.687C34.5565 135.195 34.9597 135.82 35.7661 136.211C36.4113 136.602 37.2177 136.484 37.5 135.938C37.7823 135.43 37.379 134.805 36.5726 134.414C35.7661 134.18 35.121 134.297 34.8387 134.687ZM47.9032 148.594C47.2581 149.102 47.5 150.273 48.4274 151.016C49.3548 151.914 50.5242 152.031 51.0484 151.406C51.5726 150.898 51.3306 149.727 50.5242 148.984C49.6371 148.086 48.4274 147.969 47.9032 148.594ZM43.3065 142.852C42.6613 143.242 42.6613 144.258 43.3065 145.156C43.9516 146.055 45.0403 146.445 45.5645 146.055C46.2097 145.547 46.2097 144.531 45.5645 143.633C45 142.734 43.9516 142.344 43.3065 142.852Z" fill="black"/>
</svg>
