<svg width="200" height="200" viewBox="0 0 200 200" fill="none" xmlns="http://www.w3.org/2000/svg">
<path d="M0 12.5V187.5H200V12.5H0ZM108.839 148.984C108.839 166.016 97.4107 173.789 80.7589 173.789C65.7143 173.789 57.0089 166.992 52.5446 158.75L67.8571 150.664C70.8036 155.234 73.4821 159.102 79.9554 159.102C86.1161 159.102 90.0446 156.992 90.0446 148.75V92.8516H108.839V148.984V148.984ZM153.304 173.789C135.848 173.789 124.554 166.523 119.063 156.992L134.375 149.258C138.393 155 143.661 159.258 152.902 159.258C160.67 159.258 165.67 155.859 165.67 151.133C165.67 145.508 160.58 143.516 151.964 140.195L147.277 138.437C133.705 133.398 124.732 127.031 124.732 113.633C124.732 101.289 135.491 91.9141 152.232 91.9141C164.196 91.9141 172.768 95.5469 178.929 105.078L164.286 113.281C161.071 108.242 157.589 106.25 152.187 106.25C146.696 106.25 143.214 109.297 143.214 113.281C143.214 118.203 146.696 120.195 154.777 123.281L159.464 125.039C175.446 131.016 184.42 137.148 184.42 150.898C184.42 165.664 171.116 173.789 153.304 173.789V173.789Z" fill="#FAFF06"/>
</svg>
