<svg width="200" height="200" viewBox="0 0 200 200" fill="none" xmlns="http://www.w3.org/2000/svg">
<path d="M94.3249 148.016C94.2311 148.25 94.1374 148.438 94.3249 148.016V148.016ZM172.178 114.031C165.893 114.029 159.691 115.833 154.053 119.305C152.209 114.656 150.303 110.594 149.99 107.547C149.615 103.992 149.209 101.883 149.647 97.6641C150.084 93.4454 152.053 87.4688 152.022 87.0391C151.99 86.6094 151.584 84.461 147.553 84.4219C143.522 84.3829 140.053 85.3985 139.65 86.7266C138.938 89.1538 138.384 91.6489 137.994 94.1875C137.275 98.7579 129.934 115.086 125.778 123.602C124.403 120.281 123.247 117.352 122.997 115.008C122.622 111.453 122.215 109.344 122.653 105.125C123.09 100.906 125.059 94.9297 125.028 94.5C124.997 94.0704 124.59 91.9219 120.562 91.8829C116.534 91.8438 113.062 92.8594 112.656 94.1875C112.25 95.5157 111.812 98.6407 111 101.648C110.187 104.656 100.409 131.844 97.8499 138.914C96.5374 142.508 95.4124 145.398 94.5999 147.352C94.4749 147.664 94.3811 147.859 94.3186 148.016C94.4124 147.82 94.4749 147.625 94.4749 147.703C93.7874 149.383 93.3811 150.32 93.3811 150.32V150.359C92.8499 151.609 92.2561 152.742 91.9749 152.742C91.7874 152.742 91.3811 149.461 92.0686 144.969C93.5374 135.516 97.0061 120.828 96.9749 120.32C96.9436 120.047 97.6311 117.508 94.6936 116.141C91.8499 114.852 90.8186 117 90.5686 117C90.3186 117 90.1311 117.781 90.1311 117.781C90.1311 117.781 93.2874 101.219 84.0717 101.219C78.3217 101.219 70.3217 109.109 66.3905 116.258C63.9217 117.938 58.578 121.57 52.953 125.438C50.7967 126.922 48.578 128.445 46.4842 129.891C46.328 129.695 46.203 129.5 46.0467 129.305C34.8624 114.383 14.2124 103.836 15.0874 83.7969C15.3999 76.4922 17.4311 57.3125 54.7967 34.0313C85.4217 14.9688 109.906 20.2032 114.122 31.8438C120.184 48.4454 101.031 79.3438 69.228 83.7969C57.1061 85.4766 50.7342 79.6172 49.1405 77.4297C47.4842 75.125 47.2342 75.0079 46.6092 75.4375C45.578 76.1407 46.2342 78.1719 46.6092 79.3829C47.5467 82.4688 51.453 87.9375 58.1061 90.6719C63.9499 93.0547 78.1624 94.3829 95.3467 86.0625C114.653 76.7657 129.681 50.8672 125.275 29.1876C120.787 7.1563 91.5624 -0.0702605 63.928 12.1954C47.4624 19.5001 29.6561 30.9844 16.8467 45.9454C1.63111 63.7579 -0.803262 79.2657 0.196738 85.75C3.75611 108.758 29.1249 123.758 39.278 134.852C38.778 135.203 38.3092 135.516 37.8717 135.828C32.7811 138.992 13.4405 151.648 8.59986 165.008C3.13111 180.164 9.50611 191.023 13.6905 192.508C26.7499 197.039 40.1217 188.875 47.3061 175.477C54.4905 162.078 53.6186 144.578 50.3061 136.609C50.2749 136.492 50.2124 136.414 50.1811 136.297C51.4936 135.32 52.8374 134.344 54.1811 133.367C56.7717 131.453 59.303 129.695 61.5217 128.172C60.2717 132.391 59.3655 137.469 58.8967 144.813C58.3342 153.406 61.178 164.539 64.8655 168.914C66.4905 170.828 68.4561 170.867 69.6749 170.867C73.9874 170.867 75.9249 166.414 78.078 161.102C80.7342 154.617 83.078 147.078 83.078 147.078C83.078 147.078 80.1405 167.469 88.1717 167.469C91.1061 167.469 94.0436 162.742 95.3592 160.32V160.359C95.3592 160.359 95.4217 160.203 95.578 159.891C95.8905 159.305 96.0467 158.953 96.0467 158.953V158.836C97.2342 156.297 99.828 150.477 103.731 140.867C108.794 128.445 113.634 112.938 113.634 112.938C114.102 116.347 114.749 119.713 115.572 123.016C116.447 126.727 118.29 130.789 119.759 134.734C118.572 136.766 117.853 137.938 117.853 137.938C117.855 137.968 117.866 137.995 117.884 138.016C116.947 139.578 115.884 141.258 114.79 142.898C110.794 148.836 106.04 155.633 105.415 157.586C104.665 159.891 104.853 161.609 106.29 162.938C107.353 163.953 109.228 164.109 111.194 163.914C114.787 163.602 117.319 162.508 118.537 161.805C120.784 160.798 122.908 159.404 124.847 157.664C128.753 154.07 131.128 148.914 130.909 142.117C130.784 138.367 129.815 134.617 128.628 131.102C128.972 130.477 129.347 129.813 129.69 129.148C135.875 117.859 140.656 105.469 140.656 105.469C141.124 108.878 141.771 112.244 142.594 115.547C143.344 118.711 144.809 122.188 146.153 125.586C140.344 131.484 136.75 138.32 135.5 142.813C133.187 151.133 135 154.883 138.406 155.742C139.937 156.133 142.125 155.234 143.75 154.375C146.163 153.37 148.439 151.908 150.497 150.039C154.403 146.445 158.181 141.406 157.931 134.57C157.837 131.484 157.15 128.398 156.244 125.43C161.15 122.852 167.522 121.445 175.647 122.617C193.047 125.156 196.453 138.75 195.797 144.414C195.14 150.078 191.484 153.242 190.265 154.18C189.047 155.117 188.672 155.469 188.765 156.172C188.922 157.188 189.484 157.148 190.516 156.914C191.953 156.602 199.637 152.305 199.981 141.797C200.481 128.516 190.265 113.906 172.169 114.023L172.178 114.031ZM38.0592 170.555C32.3124 178.406 24.2499 181.375 20.7842 178.875C17.0655 176.172 18.5342 164.617 25.6249 156.25C29.9374 151.172 35.4967 146.484 39.1842 143.594C40.028 142.969 41.2467 142.031 42.7467 140.898C42.9967 140.703 43.1217 140.625 43.1217 140.625C43.403 140.391 43.7155 140.195 44.028 139.961C46.6186 151.836 44.1217 162.305 38.0592 170.547V170.555ZM80.0467 134.852C78.0467 140.984 73.8311 156.609 71.2686 155.789C69.0811 155.086 67.7374 143.172 70.8311 131.453C72.3936 125.555 75.7061 118.523 77.6749 115.789C80.828 111.375 84.2967 109.969 85.1092 111.727C86.203 114.031 81.2967 131.023 80.0467 134.852ZM114.734 155.555C113.89 156.102 113.109 156.453 112.734 156.18C112.453 155.984 113.078 155.242 113.078 155.242C113.078 155.242 117.422 149.422 119.14 146.766C120.14 145.203 121.297 143.367 122.544 141.336C122.544 141.531 122.575 141.727 122.575 141.961C122.534 148.953 117.162 153.68 114.725 155.555H114.734ZM141.478 147.938C140.853 147.391 140.947 145.555 143.04 139.852C143.853 137.625 145.725 133.875 148.978 130.281C149.346 131.642 149.546 133.064 149.572 134.5C149.54 143.289 144.509 146.57 141.481 147.938H141.478Z" fill="#DF15E3"/>
</svg>
