<svg xmlns="http://www.w3.org/2000/svg" viewBox="0 0 400 400" height="999" width="999"><g transform="matrix(2,0,0,2,0,0)"><g><g><path d="M164.2,49.12c2.5-2.86,6.86-3.69,8.37,1s.47,10.29,1.87,11.75,11.27,2.84,16.89,7.85,5.13,11.32-4.08,14.51-22.33,1.92-22.33,1.92Z" fill="#fef0bb"></path><path d="M12.9,77.56c-1.23,0-4.85-3.39-6.37-2s1.63,5.67,1.11,7.08S4.54,86,5.47,88.2s4.57-.23,5.21.18.84,5.75,2.25,5.88,1.77-7,2.36-7.58,6.67.09,6.9-1.18-5.08-3.73-5.31-4.32,3-5,1.95-6.17S14,77.57,12.9,77.56Z" fill="#fef0bb"></path><path d="M67.9,63.94c-.35-3.12-.44-9.57.63-10.37S80.4,52,86,51.73s24.74,1.56,28.3,1.12,10.08-2.25,12.77-.87,2.87,3.87,2.5,6.43a119.49,119.49,0,0,0-.38,17.15c.41,3.5.68,7.37-.54,8.78s-4.19,1-5.93,1.62S120,88,119,87.25s-1.62-4.4-.65-5.53c0,0,3.15,1,3.63.16s-.19-24.2-.78-24.55-19.46-.54-22.84-.48-26.75,0-27.52.53,0,6.59,0,6.59Z" fill="#fef0bb"></path><path d="M136,118.43c1.42-1.67,3.69-1.07,4.73.87s2.41,4.19,1.58,7.47-2.86,3.92-4.69,3.89a5.23,5.23,0,0,1-3-.93c-.36-2.16-.23-2.16-.36-3a9.44,9.44,0,0,1-.06-5.2C135,119.09,136,118.43,136,118.43Z" fill="#fef0bb"></path><path d="M110.68,73.61V73s-1,0-2.66,0c0-.54-.06-1,0-1.41a14.24,14.24,0,0,1,.15-2.09l-.58.13s0,2.09,0,3.38c-1.29,0-2.89,0-4.63,0,0-1.43.09-3.61.09-3.61l-.72.19c0,.29,0,1.65.07,3.41-.9,0-1.84,0-2.78-.07l-2.91-.1c0-1.7-.07-3.27-.1-3.37s-.42,0-.42,0,0,1.5.09,3.33l-5-.16c0-.23,0-.42,0-.56,0-1.24,0-2.4,0-2.4l-.49.11s0,1.43,0,2.83l-5.22-.16c0-1.79.09-3.06.09-3.06l-.51.14s0,1.37,0,2.91l-5.08-.17c0-1.22.07-2.69.07-2.69h-.52a6.22,6.22,0,0,0,0,1.07c0,.28,0,.93,0,1.6l-6.25-.22c0-.56-.07-1.15-.08-1.5,0-.74-.4-.68-.36,0,0,.32,0,.91.06,1.48L71.07,72c-1.28,0-2.63-.09-4-.12a.57.57,0,0,1,0-.13c0-1,0-2.59,0-2.59l-.39.06s0,1.36,0,2.66c-1.41,0-2.81,0-4.14,0a17.14,17.14,0,0,1,.15-2.86c.21-.54-.62-.22-.62-.22s0,1.3,0,3.08l-4.57,0v-.26c0-1.79-.12-2.93-.12-2.93l-.47.12s0,1.22.11,3.07l-2.86,0-.09.6s1.18,0,3-.1c0,1,.08,2.16.12,3.4l-2.82,0,.07.49a15,15,0,0,1,2.76-.13c.06,1.56.12,3.22.17,4.82a16.87,16.87,0,0,0-2.9.21l-.08.37c.56-.06,1.68-.11,3-.14.06,1.84.12,3.58.17,5-1.82.06-3.41.11-3.6.15-.43.09-.63.46,0,.41l3.63-.06c.05,1.35.08,2.35.08,2.76s0,1.23.07,2.23c-1.88,0-3.44,0-3.92,0-.86,0-.51.62,0,.52.18,0,1.84-.06,3.93-.08,0,1.38.11,3.06.17,4.7l-3.16,0c-.43,0-.67.51.06.54.17,0,1.35,0,3.12,0,.07,1.89.14,3.66.18,4.77-1.47,0-2.5,0-2.71,0-.77,0-.59.42-.08.41s1.73,0,2.81,0c0,.43,0,.7,0,.76,0,.43.38.74.39,0,0-.1,0-.37,0-.76h4.05c0,.38,0,.67,0,.79.08.64.53.58.53-.1,0-.11,0-.35,0-.69l4.21,0c0,.41,0,.68,0,.75.08.46.46.57.46.05,0-.08,0-.37,0-.8h.77c.84,0,2.88,0,4.77.06,0,.83,0,1.66,0,1.66l.55.06s0-.68,0-1.71c1.41,0,2.67,0,3.19,0h2.4c0,.93.08,1.59.08,1.59l.62.07s0-.69-.1-1.66c1.87,0,4,0,5.1,0l.38,0c0,.88.06,1.49.06,1.49l.49.15s0-.68-.07-1.65c1.42,0,3.75-.07,5.79-.09,0,1,0,1.61,0,1.61l.44.18s0-.73,0-1.8c1.45,0,2.69,0,3.23,0s1,0,1.61-.06c0,1,0,1.76,0,1.76l.5.18s0-.81-.06-2c1.63-.1,3.59-.26,4.75-.2h.22v2.43l.5,0s0-1,0-2.38c1.49,0,2.94,0,3.69-.06l1.55-.07c0,.31,0,.57,0,.71,0,.65.59.67.57,0,0-.09,0-.36,0-.76l.47,0c.75,0,.62-.46.07-.49l-.56,0c0-1,0-2.4-.09-3.92l.73,0c.57,0,.83-.39-.13-.47l-.61,0c0-1.88-.08-3.84-.11-5.22h.69c.74,0,.61-.2.15-.31a2.91,2.91,0,0,0-.84,0c0-.43,0-.79,0-1.06,0-.7,0-2.09,0-3.7h1.06c.56,0,.41-.42-.07-.42h-1c0-1.51,0-3.18-.06-4.65l1.16,0c.48,0,.23-.31,0-.36l-1.12-.08c0-1.65-.05-3-.07-3.48a2.62,2.62,0,0,0,0-.27c.19,0,.33,0,.4,0,.59,0,.78-.5.15-.5-.11,0-.32,0-.59,0-.08-1-.26-2.47-.36-3.73ZM98,73.34l4.42.12c0,1.06,0,2.23,0,3.39-1.75-.1-4.45-.11-5.64-.14v-.22c0-.76,0-2-.08-3.2Zm-1.12,8c1.3.07,4.55.34,5.45.37h.16v1.29c0,.94,0,2.26.09,3.56l-5.25,0c-.2,0-.42-.35-.42-.68S96.85,83.62,96.83,81.39Zm0-.53c0-1.4,0-2.79,0-3.73l5.63.33c0,1.38,0,2.71,0,3.77Zm-.57-7.58c0,1.14.06,2.37.09,3.42-1.19,0-4-.33-4.93-.35h-.15c0-1.09,0-2.32,0-3.24Zm-5.38-.18c0,.91,0,1.73,0,2.06s0,.76,0,1.17c-1.33,0-3.91-.18-5.1-.21h0c0-.79,0-1.53,0-2.21,0-.33,0-.66,0-1Zm-5.61-.17c0,1,0,2.12,0,2.83,0,.1,0,.22,0,.35-1.42,0-4,0-5.22,0,0-.31,0-.61,0-.75,0-.3.2-1,.19-1.55,0-.16,0-.53,0-1ZM73.19,72.5a4.62,4.62,0,0,0,.13.91c.16.53.52.38.39,0a5.41,5.41,0,0,1-.13-.91c2.27.11,4.39.22,6.11.26h.1c0,.54,0,1,0,1.22s0,1.34-.06,2.08h-.21c-.71-.08-.71.38-.3.39l.5,0v.37c0,.44.34.28.34.06s0-.23,0-.42l1,0,4.24,0c0,1.06,0,2.48,0,3.68-.58,0-1.08-.08-1.4-.13s-.66.26-.24.38c.15,0,.82.08,1.64.12,0,1.14,0,2,0,2a1.49,1.49,0,0,1,.47.53c0-.82,0-1.66,0-2.5,1.42.06,3,.11,3.25.1s.34-.39-.09-.39-1.8,0-3.16-.08c0-1.27,0-2.52-.07-3.69l2.07.05,3.06.15c0,.49,0,.9,0,1a5.18,5.18,0,0,0,.32,1.39c.08.12.1.11.12-.55,0-.23,0-1,0-1.85l4.33.25.76,0c0,.75,0,1.39,0,1.8s0,1.18.06,1.93h-.15a.27.27,0,1,0,0,.53.81.81,0,0,1,.16,0,39.31,39.31,0,0,1,0,5.08.5.5,0,0,1-.28.16c-.9-1.92-2.93-7.26-3.32-6.93a34.64,34.64,0,0,0-3.31,3.84c-1.09,1.47-.59,1.38-.5,2.42.08.85.22,7.87.66,7.81s6.75.06,8.07.06,1.46-.38,1-1.26c-.36-.67-1.13-2.75-1.82-4.32,0-.38,0-.87,0-1s.21-.18.48-.16h5.13c0,1.46.1,2.84.08,3.57,0,.28,0,.63,0,1-.51,0-.9,0-1.08,0a13.15,13.15,0,0,1-1.74-.19c-.87-.07-.54.57.16.59s1.67.09,2.65.16c0,1.48,0,3.28,0,4.18,0,.17,0,.43,0,.76L97.43,97c0-1-.05-1.66-.05-1.85,0-.75-.44-.91-.42-.23,0,.18,0,1,.05,2.07h-.13c-1,0-2.7,0-4.71,0,0-1.07,0-1.88-.08-2-.1-.65-.29-.76-.36-.08,0,.19,0,1,0,2.13H85.8c0-.23,0-.4,0-.47,0-.68-.41-1.07-.47-.42,0,.11,0,.44,0,.89-2.26,0-4.32,0-5.65,0,0-.13,0-.23,0-.27-.08-.57-.39-.39-.42,0,0,0,0,.12,0,.24H78.7c-.91,0-2.73,0-4.88,0,0-1.66,0-3,0-3.12,0-.43-.11-.58.34-.64a19.63,19.63,0,0,1,2.07.1l-.38-.42-1.94-.11c-.12,0-.1-.1-.09-.32s-.31-.38-.36,0c0,.19,0,2.36,0,4.53L67.63,97c-.06-2.15-.11-4.06-.08-4.34.08-.65.11-.65-.7-.67-.3,0-1.95,0-4-.07,0-1.68-.09-3.74-.12-5.14h.68c.11,0,.52-.61-.17-.57l-.53,0c0-.47,0-.8,0-1,0-.38,0-2.06,0-4,1,0,1.76,0,2.16,0,1.51.08.61-.45-.18-.45h-2c0-1.68,0-3.46,0-4.62,1.41.06,2.87.13,4.26.22,0,2,.08,4.39.08,4.39l.51-.23s-.09-2.4-.12-4.14l2.66.17.11-.44L67.35,76c0-.3,0-.56,0-.78,0-1.21-.2-2.17-.25-3C69.12,72.3,71.21,72.4,73.19,72.5ZM63,94.49c0-.39-.06-1.22-.09-2.23,2.32,0,4.19,0,4.28.08A40.35,40.35,0,0,1,67.31,97c-1.66,0-3.16,0-4.26,0C63,95.86,63,94.91,63,94.49Zm1.66-22.27,2.14,0c0,.73,0,1.39,0,1.71s0,1.11.07,2.06l-4.25-.16v-.39c0-.85,0-2.08,0-3.24Zm-7.05.11c1.31,0,2.88-.07,4.53-.09,0,1.09,0,2.34,0,3.61-1.27,0-2.64-.08-4.12-.1C57.84,74.33,57.66,73.44,57.57,72.33ZM58,76.72c0-.23,0-.45,0-.65,1.2,0,2.61.06,4.09.12,0,1.63,0,3.28,0,4.65-1.2,0-2.64,0-4,0C58.05,79.12,58,77.57,58,76.72Zm.1,4.59c1.3,0,2.73,0,3.95,0,0,.75,0,1.41,0,1.9,0,.79.07,1.84.1,3l-4,.12C58.14,84.78,58.12,83,58.09,81.31Zm.09,8.09c0-.56,0-1.48,0-2.58l4-.08c0,1.65.09,3.48.14,5.13l-4.09-.05C58.2,90.74,58.18,89.87,58.18,89.4Zm4.14,2.86c.06,2,.1,3.7.13,4.28,0,.12,0,.28,0,.45H61.9l-3.53,0c0-1.63-.1-3.31-.13-4.7C59.55,92.26,61,92.25,62.32,92.26Zm-3.79,10c0-1.11-.08-2.88-.14-4.77l4.09,0c0,1.37.06,3.47.1,4.81Zm4.62,0c0-1.2,0-3.14-.09-4.81l4.26,0c0,1.81,0,3.69,0,4.85Zm9.22,0c-1.12,0-2.74,0-4.55,0,0-1.18-.11-3.06-.17-4.86l5.77,0c0,1.86,0,3.6,0,4s0,.59,0,1Zm1.5,0c0-1.41,0-3.3,0-5l5.19,0h.23c0,1.14.13,3.4.21,5Zm9.19,0c-.7,0-1.75,0-3,0-.1-1.65-.24-3.89-.33-5l5.63.08c0,1.35.12,3.35.19,4.84C84.46,102.34,83.58,102.37,83.06,102.4Zm3-.11c-.06-1.55-.15-3.59-.19-4.81l5.91.12c0,1.46,0,3.22.08,4.56C89.94,102.19,87.78,102.24,86,102.29Zm8.82-.16-2.56,0c0-1.36,0-3.1-.08-4.54L97,97.7c0,1.4.06,3,.08,4.36C96.38,102.1,95.63,102.13,94.83,102.13Zm2.74-.1c0-1.33-.08-3-.12-4.32,1.58,0,2.87,0,3.63,0h1.5c0,1.11,0,2.63,0,4C100.79,101.76,99.24,101.93,97.57,102Zm10.67-3.3c0,.58,0,2,.08,3.11-.34,0-.72.09-1.15.1-.92,0-1.75-.21-4.07-.21,0-1.23,0-2.67.05-4,1.92,0,3.84,0,5.08.06C108.23,98.26,108.24,98.58,108.24,98.73Zm0-1.39-5.08-.2c0-.93,0-1.75,0-2.33s0-1.56,0-2.6c.5,0,1,.05,1.3.05.78,0,2.51-.06,3.74-.09C108.19,93.85,108.21,96,108.23,97.34Zm-.1-7.42c0,.42,0,1.1,0,1.9H108c-.64,0-3.11-.12-4.82-.16,0-1.49,0-3.16.06-4.6h4.88C108.1,88.31,108.12,89.38,108.13,89.92Zm-.06-3.29H103.2c0-1.28,0-2.33,0-2.82s0-1.1-.06-2L108,82C108,83.38,108,85.12,108.07,86.63Zm-.1-7.25c0,.4,0,1.18,0,2.15l-4.12-.22-.73,0c0-1.15-.07-2.5-.1-3.78,1.07.07,3.49.23,4.88.3C108,78.39,108,78.94,108,79.38Zm-.1-2.11c-1.37-.09-3.53-.25-4.78-.37H103c0-1.51-.07-2.83-.08-3.43l4.63.09v.3C107.57,74.35,107.75,75.85,107.87,77.27Z" fill="#fef0bb"></path></g><g><path d="M76.39,22.94c-1.92.27-2.09.06-2,2.09s.18,3.93.55,8-.29,8.76-1.47,10.73-1.71,2.3,1.41,2.59,14.61.72,20.43,1.71c2.72.46,3.1-.08,3.85-2.72s1.27-5.59.3-11-1.68-9.24-1.62-10.54-1.41-2.19-4.06-2.1C86.43,22,77.87,22.74,76.39,22.94Z" fill="#FFC7D6"></path><path d="M166.32,89.46c-.23-2.89-1.69-9.5-1.69-12.24s-1.2-23.65-.48-28.16,1.69-6.68,1.77-10.86.24-9.5-.16-10.46-4.56.29-8.8.5-17,.25-18,.87c-.78.5.17,20.9-.24,28.16s-.13,14.24-.37,17.21.55,6.51.55,9.26a39.24,39.24,0,0,0,1.13,8.68c.37.75,1.31.5,2.25.5s5.84.55,9.83.44,9.37-.5,11.23-.22S166.55,92.36,166.32,89.46Zm-5.93-3.54c-1.15.83-18.16.36-18.95-.21s-.8-6.77-.66-8.62,0-17.79.27-19.2S141,45.68,141,44.11s-.64-11.37.42-12.54,17.26-.49,18,.23.9,12.81,1,14.25.36,21.11.36,22.26S161.55,85.08,160.39,85.92Z" fill="#FFC7D6"></path><path d="M172.41,26.67c-.3-1.68,3.3-2.32,4-3s.51-8.49,2.41-8.74,4.1,5.53,4.81,6,4.86-1,5.41.46-3.34,3.84-3.51,4.94,4.18,4.73,3.38,5.74-6.29-1.14-7.35-1.14-3.16,4.27-4.56,3.85-.25-5.87-.46-6.34S172.71,28.32,172.41,26.67Z" fill="#FFC7D6"></path><path d="M126.32,99.5c-1.49.38-1.6,1.82-1.63,2.83s0,6.16.07,7.28,1.86,2.08,4.24,2.67,4.42.3,5.46-1.3,3-5.87,2.6-8.76-.45-2.83-1.93-2.79S126.32,99.5,126.32,99.5Z" fill="#FFC7D6"></path><path d="M54.5,114c-.43-1.12.53-1.66,1.73-1a20.34,20.34,0,0,1,4.67,4.71c1.37,1.89,4.1,6.19,5,7.32s.92,3.86-1.49,2.29-7.73-9.56-8.56-10.74A8.92,8.92,0,0,1,54.5,114Z" fill="#FFC7D6"></path><path d="M50.94,111.51c-1.9-2.16-14-1.27-15.69-.54-2.36,1-2.63,5.24-3,7.47s-2,5.6-2,7.62,0,2.19,1.09,2.44,14.65.65,16.55.27,3.19-1.21,3.53-3.45S52.83,113.67,50.94,111.51Zm-12.1,9.78a7.88,7.88,0,0,1-3.44.19c-1.19-.22-.94-1.81.35-1.94a20.38,20.38,0,0,1,3.2,0C40.13,119.65,39.86,121,38.84,121.29Zm.79-4.91a16.79,16.79,0,0,1-3.81.18c-1.29-.21-.62-1.88.72-1.74a14.61,14.61,0,0,1,2.64.18C40.2,115.27,40.53,116.32,39.63,116.38Zm3.17,1.31a18.74,18.74,0,0,1,3,.46c.86.27.79,1.57-.15,1.43s-1.89.16-3.15,0S41.76,117.56,42.8,117.69ZM46.27,124a6.46,6.46,0,0,1-2.13.09c-.81-.1-.51-.34-1.24-.7s-.24-1.21.76-1c.58.13,1.71.25,2.51.41A.6.6,0,0,1,46.27,124Zm.26-8c-1.27-.2-1.45-.35-2.13-.42-1-.11-1-1.1,0-1.23a4.29,4.29,0,0,1,2.33.38C47.43,115.06,47.81,116.26,46.53,116.06Z" fill="#FFC7D6"></path><path d="M80.26,82.39a6.89,6.89,0,0,0,1.3-2c.12-.67-6-5.87-6.88-5.62s-3.77,4.57-5.16,6.4a40.29,40.29,0,0,0-3.89,6.41c-.32,1-.63,1.84.7,2.86s3.7,2.34,4.49,3,1.21.82,1.4.12A29.07,29.07,0,0,1,74.88,89a7.58,7.58,0,0,1,1.93-5.13C78.9,81.6,80.26,82.39,80.26,82.39Z" fill="#FFC7D6"></path></g><g><path d="M11.24,26.55c2.36,2.36,4.37,5.18,5.38,4.52s.3-7.28-1.61-9.44C9.66,15.58,5.43,20.74,11.24,26.55Z" fill="#a6eef8"></path><path d="M9.39,39.08c2.54,1.58,7,4.31,7.67,3.55s-2.16-5.58-4.63-8C5.05,27.45,1.72,34.28,9.39,39.08Z" fill="#a6eef8"></path><path d="M30.13,20.52c-1.91.27-2.6,1.07-2.66,2.87s.08,12.24-.06,15,0,12.17-.75,15.8-.23,10.93-.05,12,20.94,2.38,20.94,2.38a5.29,5.29,0,0,1,.47-4l-17.19-2.1a101.06,101.06,0,0,0-1.26-10.56c-.75-3.22-1.27-5-1.13-8.17s.38-8,.28-11,.52-6.54.19-7.52-1.31-1.87.84-1.82S44.08,24.9,47.16,25a46.44,46.44,0,0,1,6.21.59,44.81,44.81,0,0,1,1,10.16c-.16,5.3-.38,13.45-.7,17.13s-.64,9.94-.08,9.94,1.24-.31,2.18-.31a10.23,10.23,0,0,1,2.5.54c2.47-3.25,1.7-16.45,1.65-19.22s-.6-18.58-1.29-20.53-.59-3.54-2.78-3.42-7.11.47-8.38.51S30.13,20.52,30.13,20.52Z" fill="#a6eef8"></path><path d="M48.83,75c-4.58-.18-11.47,1.53-14.83,7s-6.16,8.47-11.28,10.91-6.16,5-5,7.26,8.66,2.87,14.09,1.1,17.38-.12,17.38-.12-.67-20.86-.67-23.3S48.83,75,48.83,75Z" fill="#a6eef8"></path><path d="M111.33,64.25c-5.06.22-44.13.76-47.86.87s-7.89-.67-10.11,1.11c-2.52,2-2.81,6.24-2.55,10s-.05,17.81.7,22.62,1,6.63,1.09,7.9,20.32,2,29.76,2.07,22.2,1.24,27.49.36c5.93-1,8.08-4.12,7-12.15a40.24,40.24,0,0,1,.72-16.1C118.48,77,116.39,64,111.33,64.25Zm-.84,40.24c-1.4,1.3-5.77.28-13.49.28s-16.94.06-24.11.06-17.82,0-18.74-.89-1.24-6.55-.95-11.22.95-12,.85-16.72-.15-7.18-.15-7.18a5.28,5.28,0,0,1,1.51-.14c1.11,0,14.55.42,23,.66s27.34-.37,29-.24,3.07-1.44,4,7.21S111.88,103.19,110.49,104.49Z" fill="#a6eef8"></path><path d="M84.63,83.41c-4.76-1.39-7.53,1.34-8,4.56S77,94.11,79,95s7.81,2,9.42-3.42C89.24,88.71,87,84.1,84.63,83.41Z" fill="#a6eef8"></path><path d="M106.92,25.2c0-1.07.19-1,1-1.07s15.59-1.2,18.25-1.07,3.34.06,3.22,2.78-.07,8,.88,10.86,1.77,8.78.82,9.91-5.87-.19-10.1.13-8.4-.06-11.12.76-4.54,1.26-4.1-1.9S106.92,26.66,106.92,25.2Z" fill="#a6eef8"></path><path d="M136.27,21.4c-1.76-.32-.77-5.82.13-8.63,1.31-4.11,4.76-5.51,7.15-4s.13,4.8-2.11,6.87S137.93,21.69,136.27,21.4Z" fill="#a6eef8"></path><path d="M155.55,69.81c-.49-3.7-2.69-10-2.6-10.75s.21-.91,2-1.6,1.25-3,.67-3.57-1.24-.63-1.06-.91a19.78,19.78,0,0,0,.38-2.14c.22-1,.05-1.57-.68-1.77s-1.3.63-1.57,1.6A1.56,1.56,0,0,1,150.88,52a3.52,3.52,0,0,1-2.48-1.08c-.63-.74-1.05-2.66-2.06-2.51s-1,1.53-.52,3.77c0,0-.85.32-1.08,1.82a3.71,3.71,0,0,0,1.34,3.69,6.16,6.16,0,0,0,2.77.82c.56.21-.28,1.2-1.09,3.68a72.52,72.52,0,0,0-1.49,8.14,3.29,3.29,0,0,1-.62-3.06,13.88,13.88,0,0,0-.15-6.67c-.35-1.3-1.81-1.45-1.12.31s.43,5.79,0,7.67-.59,3.61,1.34,5.27c-.2,1.48-.37,2.73-.48,3.48-.4,2.83,2.33,4.62,3.54,4s2.44-.14,3.65,0,1.47.54,3-1.75S156,73.51,155.55,69.81Z" fill="#a6eef8"></path><path d="M153.3,117.59c-1,0-1.17-.51-1.1-1.17s.58-1.15,1.33-.74.73.13,1.06-.06.63-.3,1.35.22a1.72,1.72,0,0,0,1.43.44.64.64,0,1,1,0,1.27C156.39,117.59,154.09,117.63,153.3,117.59Z" fill="#a6eef8"></path><path d="M164.55,115.67c-1.15-.33-1.53.39-2.19.36s-1.24.23-1.25.86.7.38,1.15.44,0,.29.67.42a7.77,7.77,0,0,0,1.91-.07Z" fill="#a6eef8"></path><path d="M156.87,120.45c-2.19.06-1.83-1,1.37-1.21a6.16,6.16,0,0,1,3.29.69c.9.49-.26,1.19-1.54,1A15.87,15.87,0,0,0,156.87,120.45Z" fill="#a6eef8"></path><path d="M151,123a7.56,7.56,0,0,1,2.68-.49,9.58,9.58,0,0,1,2.9.47c1,.38.93,1.08-.41,1.1a35.38,35.38,0,0,1-4.29.06,10,10,0,0,1-1-.24Z" fill="#a6eef8"></path><path d="M165.12,123.47c-1.8-.43-2.14-.7-2.8-.56s-1,1,.12,1.35a8,8,0,0,0,2.85.15Z" fill="#a6eef8"></path><path d="M151.27,126.58s3.94.13,7.85,0,6.68.18,7.51,0,.75.53.33,1.09.49,1.54-1,1.35a62.38,62.38,0,0,0-6.83-.63c-1.43.07-8-.3-8-.3Z" fill="#a6eef8"></path><path d="M100.92,119.32c0-1.09.26-1.61,2.27-1.58s7.46.76,12,.53,10.49-.63,11.36-.41.9,4.51.3,7.4-.5,4.39-5.29,4.19-11.47.9-13.81.7-6.19,0-6.79-2.69S100.91,120.41,100.92,119.32Z" fill="#a6eef8"></path><path d="M76.5,110.83c.45-.36,3.21,0,5.4-.14s3.74-.65,4.62-.4,1.4.23,1.17,1.17,0,1.43.32,1.49a11.77,11.77,0,0,0,2.22-.72c1.12-.34,1.92.6,2,1.77s-1.2,4.63-3.22,5.43-9.85,1.56-12.29.12-2.41-2.41-2.34-3.67.26-2.52,1-3.17A3.91,3.91,0,0,0,76.5,110.83Z" fill="#a6eef8"></path></g><g><path d="M39,29.36a4.18,4.18,0,0,0,2.42.12c.9-.07,1,.53,3.07.36s-.16-1.79-2-1.68A11.3,11.3,0,0,1,38.89,28C37.54,27.72,37.62,28.71,39,29.36Z" fill="#471280"></path><path d="M37.21,34.45a1.76,1.76,0,0,0,1.81,0c1.33-.83,1,.24,2.36,0s1.28-.76,2-.47,3.08.48,3.68.09.45-.11.92.12.57-1.23-.23-1.36-1,.16-1.84.32c-1.36.26-1.58-.27-2.26-.31s-1.35.4-2.41.33-1.36-.84-2.26-.28c-1.68,1-1.35-.85-3.18-.1-1.07.44-1.24,1.73,0,1.17S36.65,34.15,37.21,34.45Z" fill="#471280"></path><path d="M43.1,38.51c-.75,0-1,.26-1.83.19S41,37.26,39,37.92c-.57.19-1.1.54-1.67.76-.75.3-1,1,0,1a3.61,3.61,0,0,0,1.95-.54c.56-.25.69-.17,1.09.29s.69.4,1.65.39a5.8,5.8,0,0,1,2.27.05,6.83,6.83,0,0,0,2.88.4c1-.13,1.13-.77-.2-1C45.16,39.05,44.8,38.56,43.1,38.51Z" fill="#471280"></path><path d="M38.55,46a2,2,0,0,0,2,.27c.8-.29,1.35-.67,1.78-.5a2.49,2.49,0,0,0,1.49.25,2.48,2.48,0,0,1,1.77.15c1,.33,1.41-.25,1-.51s-1.18-1-1.88-.67a2.49,2.49,0,0,1-2,0,2.58,2.58,0,0,0-2,.08c-.75.33-1.07.46-1.33.26S39,44.49,38,44.81s-2,.72-1.71,1C36.74,46.26,38.1,45.57,38.55,46Z" fill="#471280"></path><path d="M48.4,52.46c-.67-.31-1.12-.15-1.39-.39a1.27,1.27,0,0,0-1.29-.23c-.48.2-.64.52-1.27.25a2.39,2.39,0,0,0-2,0,1.31,1.31,0,0,1-1.53.06A2.68,2.68,0,0,0,38.63,52c-.85.32-1.06,0-1.82.19s-.47,1-.12.83.67,0,1.15.16.73-.35,1.53-.35a1.64,1.64,0,0,1,1,.32,1.82,1.82,0,0,0,2,.11,5,5,0,0,1,2.71.17c.66.11,1.19-.5,1.77-.22a3.35,3.35,0,0,0,2.08.19C49.41,53.23,49.07,52.77,48.4,52.46Z" fill="#471280"></path><path d="M43.42,58c-.84,0-4.18,0-5,.07s-.89,1.24-.11,1.2,4.06,0,5,0S44.25,58,43.42,58Z" fill="#471280"></path><path d="M74.88,43.82c1.84.29,4.21.83,6.72,1.33,7,1.4,15.6,1.14,16.22,1.16,1.5,0,1.07-8.84.56-11.9a108.05,108.05,0,0,1-1.12-11.69c-.06-2.25.42-2.38-3-2.17-.64,0-1.71.08-3,.13a11.07,11.07,0,0,0-.47-1.34c-.46-1.09-1.55-1.41-1.6.14,0,.37,0,.81,0,1.26-3.26.1-7.34.19-10.69.25-.2-.57-.42-1.11-.53-1.49-.36-1.17-1.64-1.73-1.55-.08,0,.51.05,1.06.1,1.6-1.88,0-3.34,0-4,0C70,21,70.85,22.12,71.05,22.91c.92,3.57.89,12.76-.41,17.22C69.29,44.78,70.52,43.14,74.88,43.82Zm2-20.95a1.11,1.11,0,0,0,1.17.71.73.73,0,0,0,.71-.64c3.93.11,7.53,0,10.73-.12.25.62.63,1,1.2.9s.68-.47.74-1q2.1-.09,3.93-.12s.55.87.23,4.12,1.45,11.7.74,17.75c0,0-4.13-.47-7.61-.82s-3-.45-15.65-2.69c.73-3,1.87-14.51,0-18.36C74.38,22.73,75.66,22.81,76.92,22.87Z" fill="#471280"></path><path d="M78.82,28.84a13.32,13.32,0,0,1,2.3.17A18.45,18.45,0,0,1,85,29a9.85,9.85,0,0,0,3.61-.18c1.11-.11.86-1.24.17-1.33s-.88.34-2.44,0a43.09,43.09,0,0,0-7.23-.11C77.92,27.57,77.47,28.9,78.82,28.84Z" fill="#471280"></path><path d="M88.79,30.89a26.18,26.18,0,0,1-3.4-.08c-1.65,0-4.81,0-6,.07s-1.15,1,0,1.07,6.08-.24,6.92-.1A5.34,5.34,0,0,0,89,32C89.81,31.65,89.77,30.71,88.79,30.89Z" fill="#471280"></path><path d="M80.9,34c-1.51.09-1.67,1.24,0,1.46a71.81,71.81,0,0,0,9.34.31c1.54-.18,1.27-1.35-.85-1.47S82.5,33.94,80.9,34Z" fill="#471280"></path><path d="M109.82,45.77a50.92,50.92,0,0,0,11.56-.66c3.61-.68,6.5.82,8.07,0s1-3.42.14-7.53-1.46-10.2-1.91-13.39-.87-3-3.32-3.3c-.9-.11-1.93-.19-3-.23-.16-.48-.33-.88-.41-1.1-.33-.84-1.32-1.51-1.49-.16a6.93,6.93,0,0,0,0,1.2c-2.81-.05-5.82,0-8.15.16l-.28-.69c-.46-1.21-1.33-1.31-1.33,0q0,.33,0,.78l-1.3.1c-3.11.27-4.1-.57-4.35,3.45a147.31,147.31,0,0,0,.6,17.11C105.06,45.21,106.35,45.45,109.82,45.77Zm-3.76-22.86c.08-.32,1.76-.47,3.85-.51.25,1.33.75,2.59,1.69,2.51s.71-1.29.31-2.52c1.44,0,2.89.05,4,.11s2.56.06,3.89.06c.26.8.63,1.4,1.08,1.36.7-.07.89-.64.85-1.37,1.81,0,3.22.06,3.41.36.4.58.5,4.65,1.16,9.22s1,8.51,1.61,9.93c.33.78-.37,1.89-1.92,1.47s-9.14-.1-13.58.13-6.11.63-6.12-1.23S104.92,27.33,106.06,22.91Z" fill="#471280"></path><path d="M110.77,30.38c1.4,0,10.26-.51,11.91-.7s1.77-1.94-.1-1.75-10.51.88-12,1.29S109.37,30.36,110.77,30.38Z" fill="#471280"></path><path d="M120.47,32.28a81,81,0,0,0-9.33.5c-.85.16-1.49,1,.12,1s8.72,0,10.07-.27S121.93,32.39,120.47,32.28Z" fill="#471280"></path><path d="M120.47,36.33c-2,.13-7.53.45-8.57.63-1.54.27-.83.85.17.94s7.69-.15,8.93-.09S122.5,36.21,120.47,36.33Z" fill="#471280"></path><path d="M137.55,91.11a53.45,53.45,0,0,1,9.92.35c2.9.47,10,.05,12.74.34s4.26.46,5.15-.45.44-7,.27-9.59-.2-11.19-.42-13.79S165,52.1,165,50s-.55-16.19-.69-17.79.25-4.29-.48-4.95-3.81-.58-5.9-.78-6-.08-8.84-.23a87.86,87.86,0,0,0-11.65.7c-1,.2-.72,1.33-.72,3.17s-.22,12.35-.38,15.73-.66,16.14-.66,19.56.28,11.74.13,14.79,0,6.87-.14,8.45S136.11,91.29,137.55,91.11Zm.21-30.88c0-2.92.42-20.07.42-24.07s-.18-7.88.32-7.95c6-.93,19.41-.45,24.17,0,1,3.42.66,18.79.51,23s.35,15.91.34,18.23.22,16.44.62,18.28.24,2.17-.57,2.35a53.54,53.54,0,0,1-7.38-.09c-4.26-.16-15.59-.64-18.64-.56,0,0,.44-10.3.48-13.07S137.76,63.14,137.76,60.23Z" fill="#471280"></path><path d="M140.55,53.11c0,5.37-.44,17.35-.46,19.89s-.17,12.4.72,13.41,19.12.68,20.19,0,.41-10.21.42-12.6S161,50.35,161,47.91s-.14-10.53-.2-13.21-.44-3.79-1.75-4-16.45-.82-18,.34c-1.08.8-1,6.1-1,8.93S140.54,47.75,140.55,53.11Zm1-20.78a.52.52,0,0,1,.16-.36.48.48,0,0,1,.37-.14c1.84.06,16.08.32,16.72.16.4.59.92,13.52,1.11,17.23s.14,15.82,0,19.69.56,16-.42,16.57-17.35.33-17.75-.31-.25-20-.1-23.48.11-12.25-.12-14.46S141.5,36.92,141.58,32.33Z" fill="#471280"></path><path d="M54.17,104.66c.93.61,6.75.93,10.47.7s14.24.14,18.34.14,17.55,0,20.67.23,6.47.33,7.73-.79,1-11.78,1-14.52-.19-12.25-.65-15.32.14-4.84-1-5.86-9.6-.9-15.72-.79-13.3.4-18.36.23S64.47,68.06,60.77,68s-6.43-.28-7.23.34-.57,4.54-.22,6.76-.41,16-.78,21S53.24,104.06,54.17,104.66Zm.5-22.79a64,64,0,0,0-.42-12.65c4.37,0,21.06.69,25.27.69s16.87.07,20.74.12,8.22,0,9,.2C110.34,71.87,111,87,110.91,89c-.2,3.81-.15,14.71-1.14,15.21s-15.51-.25-19.77-.25-19,0-22.49.2-11.3.25-12.49-.35-.94-2-1.19-5.4S54.23,85.94,54.67,81.87Z" fill="#471280"></path><path d="M63.67,87.56a17.23,17.23,0,0,1,4.19,2.82c.74.86,2.36,2.53,3.37,2.55s1.47-1.26,2-1.72.62-1.64-.17-1.31-1.31,1.57-1.67,1.53a31.38,31.38,0,0,1-3.5-2.82,38.34,38.34,0,0,0-3.43-2.29c-.22-.16,0-.54.23-.81s2.91-3.88,3.91-5.43,3-4.25,3.2-4.65.55-.55,1.14,0a36,36,0,0,0,5.3,3c.71.24.69.54.36.85A3.19,3.19,0,0,0,78,80.54c-.09.24,1,.37,1.11,0a7.73,7.73,0,0,0,.9-1.81c.15-.75-2.47-2.28-4.16-3.19a43.23,43.23,0,0,0-3.93-1.82c-.28-.12-.25.29-.69.8S69,77.33,67.51,79.36,63.4,85.11,62.9,86,62.88,87.28,63.67,87.56Z" fill="#471280"></path><path d="M74.48,89.71c.54,3.8,2.83,6.42,7.43,6.1s6.29-4.47,5.41-8.49S84,81.71,80.46,81.56C76.39,81.37,74,85.9,74.48,89.71Zm6-6.8c3.47,0,4.84,2.58,5.66,5.23a5,5,0,0,1-4.18,6.45c-3.34.31-6-1.61-6.23-5.83A5.29,5.29,0,0,1,80.46,82.91Z" fill="#471280"></path><path d="M89,83.91c.71-.88,3.16-3,3.32-3.14s.49,0,.52.2,1,4.49,1.4,5.85,1.28,4.93,1.42,5.18-.12.38-.4.37a49.59,49.59,0,0,0-7,.52c-1.14.37-1.67,1.38-.36,1.44s7.38-.55,8.56-.63.91-1.49.52-2.64-2.66-8.48-3-9.89-.26-2.32-.91-2.37-1.1.18-1.72,1-2.65,2.68-3.26,3.38S88.28,84.79,89,83.91Z" fill="#471280"></path><path d="M59.5,117.62c-1.06-1.06-3.41-3.63-4.08-4.08a1.36,1.36,0,0,0-1.48-.22.71.71,0,0,0-.11,1.19c.48.52.75,1.06,1.23,1.64s3.21,4.74,3.75,5.57a49.24,49.24,0,0,0,3.83,5c.72.64,2,1.32,2.61.82a1.39,1.39,0,0,0,.17-2.1C64.81,124.72,60.55,118.67,59.5,117.62Zm4.22,8.81a75.18,75.18,0,0,1-5.46-6.69c-1.13-1.64-3.3-4.64-3.57-5.09s.07-.52.42-.22A75.33,75.33,0,0,1,61,120.94c1.55,2.1,3.22,4.23,3.68,5.08S64.54,127.17,63.72,126.43Z" fill="#471280"></path><path d="M178.06,130.52a88.61,88.61,0,0,1-4.9-12.42c-.77-3-1.89-7-4-8.55s-8.76-2-12.93-2.16c-3.81-.17-19.41-.22-22.14-.23a32.2,32.2,0,0,0,1.76-5.2c.47-2,.7-2.71.42-3.53a5.9,5.9,0,0,0-2.52-3c0-.46,0-.84,0-1.09.07-1-.48-3-1.29-1.07a8.72,8.72,0,0,0-.43,1.34,8,8,0,0,0-1-.3,19.24,19.24,0,0,0-.29-3c-.4-2-1.38-2.42-1.53-.24-.05.81-.06,1.84,0,2.93h-1c-.28-1.38-.54-2.61-.66-3-.33-1.15-1.5-1-1.4,0,0,.47.08,1.82.13,3.33a4.76,4.76,0,0,0-3.62,4.53c-.07,1.56-.25,4.51-.12,7l-8.18-.25a24.92,24.92,0,0,0,1.4-4.4c.83-3.44,1-9.59.83-15.24,1.76.08,7.36.28,8.93.38,1.85.13,2.23.05,2.36-1.3s.35-9.18.45-12.3.21-16.19.24-17.87.18-2.62-1.4-2.67-7.3,0-13.83-.37S94,50.81,86.76,51s-20.28.28-20.93,1.3-1.34,8-1.11,11.07l-5.51,0c.06-2.89.41-23.18.31-27-.11-3.56.2-9.15.15-13.1A2.18,2.18,0,0,0,58,21.15c-6.7-1.51-17.35-2.34-31.3-1.22A2.9,2.9,0,0,0,24,23.11c.7,6.79.09,18.23.44,22.55s.69,15.6.67,20.25A1.87,1.87,0,0,0,27,67.78c8.79.14,19.06,1.2,21.26,1.44a46.4,46.4,0,0,0-.32,6.71c0,9.22-.58,17.19.11,23a20.25,20.25,0,0,0,1.59,6.79c-3.34.11-13.47.44-16.44.52-3.57.09-4.48.43-7.23,4.43s-9.78,14.94-10.4,16.94-.11,5.33,0,6.4,1,1.62,2.5,1.82a149.21,149.21,0,0,0,15.27,1c-4.6,11.36-17.14,43.9-17.86,45.33s-.21,2.11,1.55,3.1,3.1-.48,3.74-1.42,8.29-12.56,10.6-17.89c2-4.7,11.84-24.91,14.1-29.58l3.32-.08-7.53,14.56c-2.67,5.16-3.92,8.25-4.22,9.73s.24,1.66,1.31,2,2.43.42,3.14-.3,15-19.16,16.86-21.06c1.37-1.42,3.37-3.86,4.29-5l2.83.05c6.66.13,17.92-.31,25.12.29,6.55.54,26.42.32,40.2.36,4.43,8.07,16.55,25.75,17.6,26.69s2.16,1.77,3.43,1.27,2.42-.83,3.31-1.21.93-2.21-.11-4.2c-.9-1.69-9.5-17.95-12-22.63,2.5-.08,5-.19,7.47-.31,2.82,10.21,9.41,28.21,11,33.71,1.64,5.69,5.1,18.45,5.64,20s1.06,1.68,2.2,1.37a33.24,33.24,0,0,0,3.55-1.41c.87-.34,1-.68.68-2.4s-7-42-8.22-52c2.69-.11,4.93-.15,6.49-.06,6.27.37,5.79.28,6.61-.88S179.1,132.5,178.06,130.52ZM134.64,98c.09.11.12.2,0,.3a2.73,2.73,0,0,1-.8.27c0-.4-.05-1-.07-1.55A11.8,11.8,0,0,1,134.64,98Zm-2-3.56c.07-.47.4-.62.4-.19s.07,3.19.1,4.45l-.89.14A20.43,20.43,0,0,1,132.67,94.42Zm-2.93-1.61a7.59,7.59,0,0,1,.14-2.38,4.52,4.52,0,0,1,.57,2.38c0,1,0,4.22,0,5s.51,1,.6.41a27.21,27.21,0,0,0,.07-2.94,5.84,5.84,0,0,1,.73.29,22,22,0,0,0-.27,3.33c-.42,0-.87,0-1.34.06A46.55,46.55,0,0,1,129.74,92.81ZM129.25,95c.05,1.4.16,2.81.28,3.9h-.38c-.13-.74-.42-2.28-.73-3.82C128.69,95.07,129,95.05,129.25,95Zm-1.93-2.69a54.72,54.72,0,0,1,1.13,6.51c-.37,0-.74-.08-1.1-.14-.09-1.5-.36-5.66-.38-6.12S127,91.65,127.32,92.35Zm-1,3.34c0,1,.09,2.07.15,2.87a5.92,5.92,0,0,1-2.44-.83C124,97.56,124.72,96.44,126.32,95.69Zm-2.55,3.51c2.56,1.67,7.06,2.23,11.17.9-1,5.17-3.26,9.6-3.82,10s-2.88,0-4.06-.19a3.74,3.74,0,0,1-2.66-2.3A26,26,0,0,1,123.77,99.2ZM71.54,63.31a40.59,40.59,0,0,0-.5-5.52s9,.06,13.16,0,18.37,0,23.83.06,12.23.06,12.66.49c-.07,1.09.13,5.16.06,9.31s1.18,12.67.25,13.41c-.72.58-3.44,0-4.61-.29-.17-3.47-.39-6.21-.51-7.18-.37-2.85.19-10.53-11.16-10.45ZM66.9,53.18c.36-.41,4.59,0,7.51,0s11.79-.75,14.36-.75,18.89,1.15,21.78,1,13.23-.12,14.84-.06,1.67.25,1.73,1.73-.46,13.56-.55,16.42,0,12.72-.42,13.35-5.1.4-9.6-.06c0-.85,0-1.69-.09-2.49a42.78,42.78,0,0,1,4.48.46c1.55.31,1.8-.38,1.74-2.36s.12-9.68,0-12.1-.19-10.1-.94-11.12S109.67,56,105.65,55.93s-20.72.82-23.92.82-11-.32-11.69,0-.47,4.13-.39,6.54l-3.36,0c.19-1,.5-2.67.65-4.08C67.17,57.14,66.54,53.58,66.9,53.18ZM28,66.15a.89.89,0,0,1-.85-.9c.13-9.15-1-14.48-1.06-19.59-.05-5.28.47-13.21.43-17.08a23.6,23.6,0,0,0-.77-5.69.91.91,0,0,1,.13-.75,1,1,0,0,1,.65-.4c13-1.57,27.35.71,30.59,1.28a.8.8,0,0,1,.66.81c-.77,20.29.55,20.36-.28,26.76a69.89,69.89,0,0,0-.27,12.76h-1.6c-.51,0-1,0-1.44,0a92.51,92.51,0,0,1,.41-16.79c.84-6.22.12-16.44,0-18.8s-.15-3.73-4.52-3.59-15.29-.48-17.51-.67-4.41-.39-3.76,1S29,30,29,34.67s.21,20.69.23,24.45.52,4.25,2.74,4.24c4.37,0,13.2,1.44,17.67,2a6.15,6.15,0,0,0-1.17,2.39C40.12,66.72,30.78,66.26,28,66.15Zm23-1.88C46.52,63,40.09,62.51,31,61.62c0,0-.21-2.5-.26-5.41s-.56-11.54-.43-15.9.2-12.57-.41-15.29c0,0,18.56,1.45,22.63,1.05,1,1.82,1.42,11.74,1.16,17-.26,5-1.35,15.59-.82,20.54A6.52,6.52,0,0,0,51,64.27Zm-1.76,9.36c.27-5.81.8-9,6.63-8.79s21.29-.31,29.43,0,14.67.4,19.71.37,8.5,2.67,8.86,8.59.61,22.6.51,26.37-.73,7.78-8.12,7.77-45.17-.17-50.09-.86-5.55-3.19-6-8.79S49,79.51,49.25,73.63Zm36.83,41.08a.75.75,0,0,0,1.44.08,3.11,3.11,0,0,0,0-.76,8.21,8.21,0,0,1,1.14.07c.47.07.76,0,1,.66a5.25,5.25,0,0,1-1.06,3.89c-.88.78-2.84.95-6.33,1a34.17,34.17,0,0,1-7.7-1c-.63-.13-.77-.34-1-1s-.8-3.86-.57-4.23,1.63-.24,2.64-.17a4.33,4.33,0,0,0,.25,1.54c.37.52,1.37.87,1.51,0,.1-.68-.31-3.67-.43-5l8.68.12C85.83,111.23,86,114.15,86.08,114.71Zm2.41,5.38c0,.58-.1,1.26-.86,1.3s-4.53.12-5.68.2a31.23,31.23,0,0,1-6.39-.4c-1.49-.38-1.59-.82-1.57-1.38a62.3,62.3,0,0,0,8.36.77C84,120.5,88.49,120.09,88.49,120.09ZM28.18,167.76c-3.87,7.73-8.9,15.34-9.49,15.68s-1.47-.45-1.22-1.11,5.62-14.65,7.86-20.51c2.08-5.41,8.62-20.88,9.7-24.91,1,0,2,0,2.95-.12,1.48-.1,3.19-.18,5-.25C38.22,146.9,31.94,160.25,28.18,167.76Zm21.37-18.07c-3,3.51-8.42,10.74-9.25,11.16s-1.6.48-.89-1.07,9.31-19.76,10.5-22.13l.65-1.3c3,0,6.11-.06,8.86,0C56.6,140.4,52.28,146.54,49.55,149.69ZM151.36,157c1,1.76,2.71,4.3,2.16,5.07a3.18,3.18,0,0,1-3.37.5c-.66-.55-10.54-15-12.58-18.21-1.41-2.21-3.5-5.52-4.66-7.36h1.83c2,0,4,0,6.07-.05C142.82,140.86,150.45,155.5,151.36,157Zm13.7-8.9c1.07,6.87,4.55,31.7,5.38,34.85s1.62,5.15,1.11,5.66a3,3,0,0,1-2.42.72c-.51-.26-4.18-14.78-6-20.19-1.64-4.74-9.34-27.11-11.23-32.62,4.34-.22,8.46-.47,12-.64C163.93,138.11,164.26,143,165.06,148.14Zm11.51-14.78c-1,1.16-7.2.68-9,.84s-24.53.31-31.95.31-22.58.75-29.67.83S75,134.34,67.7,134s-21.91.33-31.16.75A135.13,135.13,0,0,1,17.83,134a1,1,0,0,1-.86-.83c-.19-1.38-.4-3.32,0-4.32.52-1.19,10.12-17.06,12-19.15s4.25-2,6.48-2.09,10.38.74,13.22-.14c.74-.23,1.28-.41,1.67-.55a7.28,7.28,0,0,0,5.19,2.3c2.61.26,11,.45,20.15.59-.07.65-.11,1.44-.12,2.19-.64,0-1.81-.08-2.44-.07-.9,0-1.91.26-1.88,1.38a47.92,47.92,0,0,0,.73,5.39c.18.77.76.68.92.9a4.7,4.7,0,0,0,.87,1.88c.72.75,5.57.94,7.74.9s6.74-.17,7.28-.46.5-2,.92-2.18.8-.66,1.31-2.23a5.58,5.58,0,0,0-.31-4.53c-.61-.81-2.41-.5-3.41-.39-.17-1-.39-2-.57-2.63,8.37.1,15.82.16,18.54.19,4.21.06,6.57-.7,8.15-2.91l9.29.5a4.21,4.21,0,0,0,.65,1.86c1.28,1.63,6.15,2.5,7.84,1.78a5.49,5.49,0,0,0,1.94-2.39c9.76-.05,19.23.11,23.13.16s10.11.53,12,1.64,4.81,9.63,5.5,11.91S177.52,132.19,176.57,133.36Z" fill="#471280"></path><path d="M132,106.87c.74-.64,1.15-2.74,1.08-4s-1.08-.59-1,.36a7.25,7.25,0,0,1-.75,3C131.05,107,131.29,107.52,132,106.87Z" fill="#471280"></path><path d="M150.54,128.05c0,.72.72.75,1.64.59s12.31.06,13,.11.83-.27.83-1.38,0-7.66-.34-10.51-.83-4.23-1.22-4.6a3.18,3.18,0,0,0-.92-.14,4.21,4.21,0,0,0-.09-.49c-.17-.79-.5-.67-.63.1,0,.13,0,.25-.05.35l-.78,0a5.32,5.32,0,0,0-.13-.59c-.21-.81-.88-.64-.92.23,0,.12,0,.23,0,.34l-1.11,0a5.08,5.08,0,0,0-.15-.52c-.25-.71-.79-.63-.87.06a3.37,3.37,0,0,0,0,.44H158a3.73,3.73,0,0,0-.17-.64c-.25-.65-.79-.67-.89.2,0,.16,0,.3,0,.43h-1.18c0-.2-.05-.4-.07-.57-.06-.61-.61-.71-.67,0l0,.53h-.74c-.09-.33-.17-.64-.2-.8-.07-.53-.71-.6-.68,0,0,.19,0,.5,0,.83H153a5.93,5.93,0,0,0-.08-.76c-.08-.48-.84-.6-.85,0,0,.22,0,.46,0,.72h-1.16c-.44,0-.65-.21-.79.69a60.41,60.41,0,0,0-.22,8.81C150.05,125.28,150.52,127.34,150.54,128.05Zm14.09-.53a26.67,26.67,0,0,1-4.83.17c-2.08-.06-8,.16-8.12,0a2.19,2.19,0,0,1,.06-1.35c.28-.2,7,.39,8.43.32a37.63,37.63,0,0,1,4.59-.08C165.05,126.71,164.8,127.39,164.63,127.52Zm-13.17-14.46a3.33,3.33,0,0,1,.65-.07l0,.3c.08.78.85.57.86,0V113h.44c.1.4.3.69.68.64s.29-.29.27-.64h.53c0,.14,0,.27,0,.41.06.69.95.67.92.11,0-.16,0-.34,0-.53h1.11a5,5,0,0,0,.14.65c.16.62.86.79,1,.14a5,5,0,0,0,0-.8h.75a2.15,2.15,0,0,0,.13.47c.16.44.62.79.84.14a2.13,2.13,0,0,0,.12-.6l1.07,0c0,.18.07.37.12.58a.46.46,0,0,0,.92-.09c0-.14,0-.29,0-.46l.7,0c0,.13,0,.28.06.44a.41.41,0,0,0,.81.06c0-.11,0-.24,0-.41.13,0,.21.05.21.09,0,.27.49,5.38.59,6.85s.61,5.28.31,5.54-5.07,0-6.82,0-6,0-6.17-.36a26.55,26.55,0,0,1-.33-5.33C151.45,117.85,151,113.25,151.46,113.06Z" fill="#471280"></path><path d="M173.38,131.65c-1.39,0-16.5,0-20.74.12s-12.27.44-13.44.51c-.92.06-1.14.91.05.86s14.87-.32,19.76-.32,12.85-.13,14.63,0S174.76,131.61,173.38,131.65Z" fill="#471280"></path><path d="M142.09,124.76c-.46-3.19-3-7.22-5.1-7.19s-4.48,5.22-4.33,8.6,1.94,5,5.28,4.79S142.55,128,142.09,124.76Zm-5.1-5.89c1.57,0,3.56,4,3.54,5.63s-1.08,3.51-3.09,3.53a3.31,3.31,0,0,1-3.3-3.35C134.06,123,135.55,118.87,137,118.87Zm-3,10c-.67-.59.07-.7.56-.25a4.25,4.25,0,0,0,5.75-.47c.83-1,1.12-.24.72.29A4.67,4.67,0,0,1,134,128.89Z" fill="#471280"></path><path d="M137.33,121.62a7.93,7.93,0,0,0,0-1.09c0-.5-1-.8-1,.14a2.58,2.58,0,0,1-.07,1C136.16,122.26,137.32,122.1,137.33,121.62Z" fill="#471280"></path><path d="M135.69,125.16c1.16-.19,1.61-.53,2.77.11.48.26.78-.15.42-.68a2.84,2.84,0,0,0-3.5-.2A.44.44,0,0,0,135.69,125.16Z" fill="#471280"></path><path d="M101.58,129c2,.23,9.41.63,12.5.68s9.32.14,10.81-1,2.55-10.47,1.69-11.84c-.53-.85-25.57-1.24-27.48,0-.73.46-1,5.08-.48,8S99.58,128.74,101.58,129Zm-1.11-3.21A3.46,3.46,0,0,1,100,124l2.12,0c.05.47.08.85.09,1,0,.82.72,1.2.74.56,0-.19,0-.8-.06-1.58l2.12,0c.07.7.13,1.25.15,1.42.07.61.69.61.6-.06,0-.17-.07-.69-.12-1.35l2,0c0,1,0,2,0,2.56C104.35,126.69,101.05,126.44,100.47,125.76Zm2.2-4.71c0-.58-.06-1.09-.08-1.44l1.91,0c0,.33.09.84.15,1.42Zm2.06.87c.06.52.11,1,.16,1.54l-2.08,0c0-.49-.06-1-.09-1.53Zm.63-.83c0-.59-.08-1.09-.1-1.41l2.31.06c0,.32,0,.8,0,1.38Zm2.24.89c0,.49,0,1,0,1.51l-2.09,0c0-.49-.07-1-.11-1.53Zm16.56,6.12c-.88.4-4.09.87-10.2.87a104.5,104.5,0,0,1-13-.82c-.44-.14-.44-.84-.44-.84s5.07.6,9.26.65,13.22-.15,14.18-.36S125,127.7,124.16,128.1Zm-15.65-4.61-.13-1.49,2.9.06.09,1.4Zm2.91.77.16,2.48c-.86,0-1.81,0-2.79,0l-.22-2.55Zm-3.12-3.14-.12-1.36,3,.08.08,1.3Zm4.4,2.3-.53,0-.15-1.36c.94,0,1.94,0,3,0,0,.39,0,.79.08,1.16v.1Zm2.5.87c.12.86.27,1.75.37,2.33-.76,0-1.47,0-2.1.06l-1,0-.25-2.43C113.18,124.29,114.18,124.3,115.2,124.29Zm-.23-3.16h-3l-.14-1.29,3.18.07C115,120.2,115,120.64,115,121.13Zm3.65.86c0,.4.06.82.08,1.24l-2.8.09a5.12,5.12,0,0,1-.07-.9v-.35C116.77,122.06,117.71,122,118.62,122Zm-2.77-.87c0-.47,0-.89,0-1.19h2.53c0,.31.09.71.13,1.16Zm2.89,3.14a21,21,0,0,1,0,2.31c-.71,0-1.44,0-2.14,0-.14-.52-.36-1.43-.53-2.31Zm.65-1.05c-.06-.42-.11-.84-.15-1.24l3.43-.17c.07.43.12.88.15,1.31Zm3.46,1c0,.88,0,1.66.05,2.14-.77.11-1.75.18-2.81.22a13.45,13.45,0,0,1-.54-2.29Zm-3.7-3.11c0-.46-.05-.86,0-1.16,1.06,0,2.18,0,3.24,0,.05.25.12.62.19,1Zm5.32,4.71a1.58,1.58,0,0,1-.74.37c0-.47,0-1.22,0-2l1.29,0A3.92,3.92,0,0,1,124.47,125.78Zm.68-2.74-1.49,0c0-.23,0-.45,0-.65s-.06-.46-.1-.68l1.78-.12C125.25,122.1,125.21,122.58,125.15,123Zm.2-2.21c-.46,0-1.13.07-2,.1-.09-.38-.18-.72-.26-1,.88,0,1.68.07,2.31.14C125.38,120.33,125.36,120.58,125.35,120.83ZM99.9,117.7s3-.25,6-.26c3.31,0,10.8.13,19.55.62,0,0,0,.31,0,.81l-25.56,0C99.89,118.42,99.9,118,99.9,117.7Zm0,1.83,1.77,0c0,.32.08.84.15,1.45l-2,0C99.84,120.48,99.85,120,99.86,119.53Zm2,2.34c0,.51.1,1,.15,1.52l-2.13-.09c0-.47,0-1,0-1.47Z" fill="#471280"></path><path d="M130,132.67c-2.17-.06-23.11-1.06-29.77-1.33-5.7-.23-24.59-1-30.19-.27-1.83.24-1.15,1.28.34,1.23s8.51,0,16.55,0,27.92.86,33.94,1.43a57,57,0,0,0,9.6-.21C131.66,133.4,132.12,132.72,130,132.67Z" fill="#471280"></path><path d="M64.11,131.22c-1.42-.25-10.43-.2-15.69-.25s-14.17-.1-17.09-.44a84.51,84.51,0,0,0-10.27-.29c-1.75.08-1.37,1.07-.25,1.27s3.61-.2,6.53-.29,9.54,1,14.85.87,17.44,0,20.21.39S65.52,131.46,64.11,131.22Z" fill="#471280"></path><path d="M39.11,125.38a.42.42,0,0,0,0,.84.42.42,0,0,0,0-.84Z" fill="#471280"></path><path d="M29.87,128.49a67.1,67.1,0,0,0,8.15.69c2.54,0,7.43.1,9.31,0a2.5,2.5,0,0,0,2.77-2.15c.3-1.2.69-5.51.88-7.3s.56-5.6.17-6.94a3.75,3.75,0,0,0-3.65-2.77c-2.19-.09-9.6-.45-11.12-.39s-3.05.11-3.51,1.29-3.68,10-4.18,11.76-.42,2.65.13,3.29C28.5,127.1,29.25,128.4,29.87,128.49ZM48.4,128c-1.2.52-3.81.43-7,.38s-10.43-.3-11.13-.69-.63-.86.34-.65a44.26,44.26,0,0,0,6.26.54c1.89,0,10.24-.14,11.25-.27s1-1,1.2-.9S49.6,127.5,48.4,128Zm-18.57-4c.58-1.78,3.35-11.21,3.53-11.94s.24-1.09,1-1.09c1.57,0,2.29-.35,13.17.18,1.5.07,1.79,1.24,2.22,2.91s-.21,6.74-.51,8.56.3,3.75-2.07,4-13.14,0-14.56-.43S29.24,125.83,29.83,124.05Z" fill="#471280"></path><path d="M31.26,124.66c.66.56,5.14.57,6.3.49s7.71.17,8.88.14,1.82-.6,1.73-1.64c-.11-1.36,1.45-10.46,0-11.15-.72-.34-3.91-.18-5.64-.34s-7-.28-7.59-.21-.39.08-.64,1.07-2.09,5.75-2.6,7.31S30.61,124.1,31.26,124.66Zm1.85-7c.33-1.16,1.2-3.3,1.59-4.41a.48.48,0,0,1,.46-.33c2,0,11.64.09,12.12.29s.68,1.51.66,2.82a79.3,79.3,0,0,1-.84,8.21c-.22.57-.67.14-2.12.19s-7.85.13-9.34.09-3.61-.25-4-.64S32.75,118.93,33.11,117.65Z" fill="#471280"></path></g></g></g></svg>