<svg width="200" height="200" viewBox="0 0 200 200" fill="none" xmlns="http://www.w3.org/2000/svg">
<path d="M24.1016 66.1719L63.75 174.766C36.0156 161.328 16.9141 132.891 16.9141 100C16.9141 87.9297 19.4922 76.5234 24.1016 66.1719V66.1719ZM156.094 95.8203C156.094 85.5469 152.422 78.4375 149.258 72.8906C145.039 66.0547 141.094 60.2344 141.094 53.3984C141.094 45.7422 146.875 38.6328 155.039 38.6328C155.391 38.6328 155.742 38.6719 156.133 38.7109C141.328 25.1562 121.641 16.875 100 16.875C70.9766 16.875 45.4297 31.7578 30.5469 54.3359C32.5 54.4141 34.3359 54.4531 35.8984 54.4531C44.5703 54.4531 58.0469 53.3984 58.0469 53.3984C62.5391 53.125 63.0469 59.7266 58.5938 60.2344C58.5938 60.2344 54.1016 60.7422 49.1016 61.0156L79.375 151.016L97.5781 96.4844L84.6484 61.0156C80.1562 60.7422 75.9375 60.2344 75.9375 60.2344C71.4453 59.9609 71.9922 53.125 76.4453 53.3984C76.4453 53.3984 90.1562 54.4531 98.3203 54.4531C106.992 54.4531 120.469 53.3984 120.469 53.3984C124.961 53.125 125.469 59.7266 121.016 60.2344C121.016 60.2344 116.523 60.7422 111.523 61.0156L141.562 150.352L149.844 122.656C153.359 111.172 156.094 102.93 156.094 95.8203ZM101.445 107.266L76.5234 179.727C83.9844 181.914 91.8359 183.125 100 183.125C109.687 183.125 118.945 181.445 127.578 178.398C127.344 178.047 127.148 177.656 126.992 177.266L101.445 107.266ZM172.93 60.1172C173.281 62.7734 173.477 65.5859 173.477 68.6719C173.477 77.1094 171.914 86.5625 167.148 98.4375L141.758 171.836C166.484 157.422 183.086 130.664 183.086 100C183.086 85.5469 179.414 71.9531 172.93 60.1172V60.1172ZM196.875 100C196.875 153.438 153.398 196.875 100 196.875C46.5625 196.875 3.125 153.398 3.125 100C3.125 46.5625 46.5625 3.125 100 3.125C153.398 3.125 196.875 46.5625 196.875 100ZM192.422 100C192.422 49.0234 150.937 7.57812 100 7.57812C49.0234 7.57812 7.57812 49.0234 7.57812 100C7.57812 150.977 49.0625 192.422 100 192.422C150.977 192.422 192.422 150.977 192.422 100Z" fill="#274AFF"/>
</svg>
